# xmcd
#
# Track frame offsets:
# 150
# 24064
# 50719
# 80432
# 106101
# 131889
# 149509
# 169706
# 193773
# 219972
# 247000
# 266038
# 288001
# 309114
#
# Disc length: 4429 seconds
#
#
# Revision: 0
# Processed by: cddbd v1.5.2PL0 Copyright (c) Steve Scherf et al.
# Submitted via: FreeRIP 2.951 
#
DISCID=c2114b0e
DTITLE=Bon Jovi - Always
DYEAR=1900
DGENRE=Rock
TTITLE0=Bad Medicine
TTITLE1=Always
TTITLE2=Bed Of Roses
TTITLE3=Blaze Of Glory
TTITLE4=I'll Be There For You
TTITLE5=Runaway
TTITLE6=In And Out Of Love
TTITLE7=In These Arms
TTITLE8=Keep The Faith
TTITLE9=Lay Your Hands On Me
TTITLE10=Livin' On A Prayer
TTITLE11=Never Say Goobye
TTITLE12=Someday I'll Be Saturday Night
TTITLE13=Wanted Dead Or Alive
EXTD=
EXTT0=
EXTT1=
EXTT2=
EXTT3=
EXTT4=
EXTT5=
EXTT6=
EXTT7=
EXTT8=
EXTT9=
EXTT10=
EXTT11=
EXTT12=
EXTT13=
PLAYORDER=
